# AST/ASF file generated using VICON BodyLanguage
# -----------------------------------------------
:version 1.10
:name VICON
:units
  mass 1.0
  length 0.45
  angle deg
:documentation
   .ast/.asf automatically generated from VICON data using
   VICON BodyBuilder and BodyLanguage model FoxedUp or BRILLIANT.MOD
:root
   order TX TY TZ RX RY RZ
   axis XYZ
   position 0 0 0  
   orientation 0 0 0 
:bonedata
  begin
     id 1 
     name lhipjoint
     direction 0.578396 -0.714046 0.394458 
     length 2.21935 
     axis 0 0 0  XYZ
  end
  begin
     id 2 
     name lfemur
     direction 0.34202 -0.939693 0  
     length 6.39105  
     axis 0 0 20  XYZ
    dof rx ry rz
    limits (-160.0 20.0)
           (-70.0 70.0)
           (-60.0 70.0)
  end
  begin
     id 3 
     name ltibia
     direction 0.34202 -0.939693 0   
     length 6.99037   
     axis 0 0 20   XYZ
    dof rx
    limits (-10.0 170.0)
  end
  begin
     id 4 
     name lfoot
     direction 0.0582372 -0.160005 0.985397   
     length 2.06111   
     axis -90 7.62852e-016 20   XYZ
    dof rx rz
    limits (-45.0 90.0)
           (-70.0 20.0)
  end
  begin
     id 5 
     name ltoes
     direction 1.53556e-011 -4.21875e-011 1   
     length 1.04074   
     axis -90 7.62852e-016 20   XYZ
    dof rx
    limits (-90.0 20.0)
  end
  begin
     id 6 
     name rhipjoint
     direction -0.558179 -0.726269 0.40121   
     length 2.182  
     axis 0 0 0  XYZ 
  end
  begin
     id 7 
     name rfemur
     direction -0.34202 -0.939693 0   
     length 6.51172   
     axis 0 0 -20   XYZ
    dof rx ry rz
    limits (-160.0 20.0)
           (-70.0 70.0)
           (-70.0 60.0)
  end
  begin
     id 8 
     name rtibia
     direction -0.34202 -0.939693 0   
     length 7.02607   
     axis 0 0 -20   XYZ
    dof rx
    limits (-10.0 170.0)
 end
 begin
     id 9 
     name rfoot
     direction -0.0788856 -0.216737 0.973038   
     length 1.96734  
     axis -90 -7.62852e-016 -20   XYZ
    dof rx rz
    limits (-45.0 90.0)
           (-20.0 70.0)
  end
  begin
     id 10 
     name rtoes
     direction -1.53567e-011 -4.21783e-011 1   
     length 0.990825   
     axis -90 -7.62852e-016 -20   XYZ
    dof rx
    limits (-90.0 20.0)
  end
  begin
     id 11 
     name lowerback
     direction 0.00668177 0.999323 -0.0361741   
     length 1.7655   
     axis 0 0 0   XYZ
    dof rx ry rz
    limits (-20.0 45.0)
           (-30.0 30.0)
           (-30.0 30.0)
  end
  begin
     id 12 
     name upperback
     direction -0.00222086 0.99851 0.0545167   
     length 1.74912   
     axis 0 0 0   XYZ
    dof rx ry rz
    limits (-20.0 45.0)
           (-30.0 30.0)
           (-30.0 30.0)
  end
  begin
     id 13 
     name thorax
     direction -0.00733971 0.997496 0.0703443   
     length 1.75715   
     axis 0 0 0   XYZ
    dof rx ry rz
    limits (-20.0 45.0)
           (-30.0 30.0)
           (-30.0 30.0)
  end
  begin
     id 14 
     name lowerneck
     direction 0.0279797 0.994795 0.0979765   
     length 1.46939   
     axis 0 0 0   XYZ
    dof rx ry rz
    limits (-20.0 45.0)
           (-30.0 30.0)
           (-30.0 30.0)
  end
  begin
     id 15 
     name upperneck
     direction 0.00339187 0.976776 -0.214238   
     length 1.48018   
     axis 0 0 0   XYZ
    dof rx ry rz
    limits (-20.0 45.0)
           (-30.0 30.0)
           (-30.0 30.0)
  end
  begin
     id 16
     name head
     direction -0.00263506 0.996603 -0.0823096  
     length 1.4976  
     axis 0 0 0   XYZ
    dof rx ry rz
    limits (-20.0 45.0)
           (-30.0 30.0)
           (-30.0 30.0)
  end
  begin
     id 17 
     name lclavicle
     direction 0.894044 0.44508 -0.0508781  
     length 3.03024  
     axis 0 0 0   XYZ
    dof ry rz
    limits (-20.0 10.0)
           (0.0 20.0)
  end
  begin
     id 18 
     name lhumerus
     direction 1 -4.48961e-011 -2.39475e-018   
     length 4.4661   
     axis 180 -30 -90   XYZ
    dof rx ry rz
    limits (-60.0 90.0)
           (-90.0 90.0)
           (-90.0 90.0)
  end
  begin
     id 19
     name lradius
     direction 1 -4.48961e-011 9.29328e-028   
     length 3.41414   
     axis 180 -30 -90   XYZ
    dof rx
    limits (-10.0 170.0)
  end
  begin
     id 20
     name lwrist
     direction 1 -4.48985e-011 1.53461e-026   
     length 1.70707   
     axis -1.09697e-014 90 90   XYZ
    dof ry
    limits (-180.0 0.0)
 end
  begin
     id 21 
     name lhand
     direction 1 -4.48966e-011 3.06923e-026   
     length 0.328298   
     axis -1.95843e-014 90 90   XYZ
    dof rx rz
    limits (-90.0 90.0)
           (-45.0 45.0)
  end
  begin
     id 22 
     name lfingers
     direction 1 -4.48893e-011 6.13845e-026   
     length 0.264682   
     axis -3.91686e-014 90 90   XYZ
    dof rx
    limits (0.0 90.0)
  end
  begin
     id 23
     name lthumb
     direction 0.707107 -6.34876e-011 0.707107   
     length 0.380032   
     axis -90 45 2.85299e-015   XYZ
    dof rx rz
    limits (-45.0 45.0)
           (-45.0 45.0)
  end
  begin
     id 24 
     name rclavicle
     direction -0.936955 0.347862 -0.0332887   
     length 3.26927  
     axis 0 0 0   XYZ 
    dof ry rz
    limits (-10.0 20.0)
           (-20.0 0.0)
  end
  begin
     id 25 
     name rhumerus
     direction -1 -4.4896e-011 1.78637e-018  
     length 4.40431   
     axis 180 30 90   XYZ
    dof rx ry rz
    limits (-90.0 60.0)
           (-90.0 90.0)
           (-90.0 90.0)
  end
  begin
     id 26 
     name rradius
     direction -1 -4.48955e-011 9.34036e-027   
     length 3.04688   
     axis 180 30 90   XYZ
    dof rx
    limits (-10.0 170.0)
  end
  begin
     id 27 
     name rwrist
     direction -1 -4.49011e-011 1.53461e-026   
     length 1.52344   
     axis -1.09697e-014 -90 -90   XYZ
    dof ry
    limits (-180.0 0.0)
  end
  begin
     id 28
     name rhand
     direction -1 -4.48834e-011 3.06923e-026   
     length 0.500489   
     axis -1.95843e-014 -90 -90   XYZ
    dof rx rz
    limits (-90.0 90.0)
           (-45.0 45.0)
  end
  begin
     id 29
     name rfingers
     direction -1 -4.48967e-011 6.13845e-026   
     length 0.403507   
     axis -3.91686e-014 -90 -90   XYZ
    dof rx
    limits (0.0 90.0)
  end
  begin
     id 30
     name rthumb
     direction -0.707107 -6.34826e-011 0.707107   
     length 0.579358   
     axis -90 -45 -2.85299e-015   XYZ
    dof rx rz
    limits (-45.0 45.0)
           (-45.0 45.0)
  end
:hierarchy
  begin
    root lhipjoint rhipjoint lowerback
    lhipjoint lfemur
    lfemur ltibia
    ltibia lfoot
    lfoot ltoes
    rhipjoint rfemur
    rfemur rtibia
    rtibia rfoot
    rfoot rtoes
    lowerback upperback
    upperback thorax
    thorax lowerneck lclavicle rclavicle
    lowerneck upperneck
    upperneck head
    lclavicle lhumerus
    lhumerus lradius
    lradius lwrist
    lwrist lhand lthumb
    lhand lfingers
    rclavicle rhumerus
    rhumerus rradius
    rradius rwrist
    rwrist rhand rthumb
    rhand rfingers
  end

#!OML:ASF H:\IndianDance\Patient Classification 1\Patient 1\Session 1\dancer.ASF
:FULLY-SPECIFIED
:DEGREES
1670
root -7.00103 15.0164 9.73228 -172.388 13.9428 -179.425
lowerback 4.06776 3.45171 -1.63578
upperback -7.1779 4.82262 -0.738168
thorax -9.96157 2.58864 -0.511358
lowerneck -16.2809 -2.52642 -1.84623
upperneck 16.8121 -4.23321 7.92879
head 8.12179 -1.16696 2.47634
rclavicle -1.87603e-014 4.37326e-015
rhumerus 8.08803 -0.981137 -48.1405
rradius 49.0323
rwrist -77.4381
rhand -30.2807 -38.0929
rfingers 7.12502
rthumb -3.58858 -68.0425
lclavicle -1.87603e-014 4.37326e-015
lhumerus 24.3919 29.1224 43.3177
lradius 28.2641
lwrist 53.5333
lhand -9.02547 56.8376
lfingers 7.12502
lthumb 16.9219 446.12
rfemur -42.2471 -19.4581 29.8456
rtibia 67.0641
rfoot -2.75077 12.5951
rtoes -5.51318
lfemur -28.7755 20.6924 -18.2583
ltibia 59.0182
lfoot -9.43977 4.14319
ltoes -11.0545
1671
root -6.94595 15.0133 9.667 -172.568 13.4582 -179.217
lowerback 4.10929 3.28873 -1.36955
upperback -7.08969 4.61412 -0.739019
thorax -9.86228 2.46299 -0.629391
lowerneck -16.1814 -2.79208 -2.08423
upperneck 16.7753 -4.56417 8.0637
head 8.11856 -1.32703 2.52161
rclavicle -3.44643e-014 -1.98785e-015
rhumerus 8.38107 3.21694 -46.8965
rradius 49.7185
rwrist -76.5597
rhand -30.3566 -38.587
rfingers 7.12502
rthumb -3.66187 -68.5353
lclavicle -3.44643e-014 -1.98785e-015
lhumerus 24.4773 26.4218 42.8304
lradius 28.6463
lwrist 54.0742
lhand -9.55363 58.8136
lfingers 7.12502
lthumb 16.4135 448.139
rfemur -41.4892 -19.1743 30.4214
rtibia 66.2863
rfoot -2.34213 12.2618
rtoes -2.91843
lfemur -29.369 20.5269 -17.6405
ltibia 60.6338
lfoot -7.96658 3.66929
ltoes -9.50795
1672
root -6.88946 15.0078 9.60377 -172.76 13.0014 -178.997
lowerback 4.1903 3.14932 -1.10759
upperback -7.00133 4.43583 -0.741553
thorax -9.7892 2.35193 -0.754064
lowerneck -16.1234 -3.07936 -2.34494
upperneck 16.7761 -4.92442 8.2094
head 8.13919 -1.49904 2.57095
rclavicle 7.25813e-014 2.22639e-014
rhumerus 8.70812 7.37336 -45.4914
rradius 50.6466
rwrist -75.6541
rhand -30.3355 -38.9035
rfingers 7.12502
rthumb -3.64142 -68.8521
lclavicle 7.25813e-014 2.22639e-014
lhumerus 24.5721 23.5651 42.2042
lradius 29.081
lwrist 54.5376
lhand -9.7807 60.645
lfingers 7.12502
lthumb 16.1948 449.988
rfemur -40.6532 -18.7971 30.9558
rtibia 65.6814
rfoot -2.25374 11.6395
rtoes -0.575382
lfemur -30.116 20.3936 -16.9972
ltibia 62.4171
lfoot -6.37674 3.20564
ltoes -7.45461
1673
root -6.8318 14.9997 9.54227 -172.963 12.5806 -178.788
lowerback 4.31506 3.03727 -0.862419
upperback -6.91708 4.29135 -0.760673
thorax -9.74883 2.25762 -0.89481
lowerneck -16.0952 -3.39154 -2.63036
upperneck 16.7971 -5.31973 8.38289
head 8.17722 -1.68456 2.62935
rclavicle -4.82053e-015 -5.96354e-015
rhumerus 9.07955 11.4207 -43.9401
rradius 51.7982
rwrist -74.6386
rhand -30.1066 -39.1056
rfingers 7.12502
rthumb -3.42044 -69.0579
lclavicle -4.82053e-015 -5.96354e-015
lhumerus 24.715 20.6061 41.4744
lradius 29.5883
lwrist 54.9552
lhand -9.83777 62.2336
lfingers 7.12502
lthumb 16.1399 628.418
rfemur -39.7751 -18.3314 31.4188
rtibia 65.2321
rfoot -2.43101 10.8582
rtoes 1.551
lfemur -30.9812 20.2568 -16.3631
ltibia 64.3011
lfoot -4.79848 2.80899
ltoes -5.11026
1674
root -6.77319 14.988 9.48213 -173.176 12.1962 -178.614
lowerback 4.48504 2.95194 -0.646164
upperback -6.84009 4.17845 -0.807617
thorax -9.74499 2.17943 -1.0565
lowerneck -16.0838 -3.72963 -2.94602
upperneck 16.8174 -5.7524 8.60422
head 8.22497 -1.88367 2.70384
rclavicle -1.58034e-014 -3.97569e-015
rhumerus 9.49852 15.3161 -42.2593
rradius 53.1689
rwrist -73.4625
rhand -29.8291 -39.0859
rfingers 7.12502
rthumb -3.15243 -69.0423
lclavicle -1.58034e-014 -3.97569e-015
lhumerus 24.9232 17.5814 40.6497
lradius 30.1923
lwrist 55.3704
lhand -9.94154 63.4999
lfingers 7.12502
lthumb 16.0399 627.144
rfemur -38.8894 -17.7983 31.7937
rtibia 64.9011
rfoot -2.86089 10.0459
rtoes 2.85171
lfemur -31.9235 20.0843 -15.7726
ltibia 66.2101
lfoot -3.37677 2.52677
ltoes -2.66574
1675
root -6.71409 14.973 9.42268 -173.397 11.8537 -178.5
lowerback 4.6905 2.89857 -0.478517
upperback -6.76982 4.10236 -0.888788
thorax -9.77167 2.12116 -1.23491
lowerneck -16.0686 -4.09653 -3.29432
upperneck 16.8118 -6.22454 8.87187
head 8.27138 -2.09912 2.79374
rclavicle -2.76311e-014 -1.11319e-014
rhumerus 9.95672 19.0157 -40.4559
rradius 54.7524
rwrist -72.0641
rhand -29.5776 -38.8129
rfingers 7.12502
rthumb -2.90953 -68.7728
lclavicle -2.76311e-014 -1.11319e-014
lhumerus 25.2054 14.5118 39.75
lradius 30.9154
lwrist 55.7553
lhand -10.1885 64.459
lfingers 7.12502
lthumb 15.8021 626.166
rfemur -38.0242 -17.2143 32.0576
rtibia 64.6531
rfoot -3.47072 9.28393
rtoes 3.36103
lfemur -32.8912 19.8568 -15.2653
ltibia 68.0606
lfoot -2.27016 2.35338
ltoes -0.428715
1676
root -6.65479 14.9544 9.36304 -173.629 11.5514 -178.453
lowerback 4.93558 2.86361 -0.362242
upperback -6.71126 4.04476 -1.0058
thorax -9.83659 2.07406 -1.42849
lowerneck -16.0252 -4.47669 -3.64792
upperneck 16.7637 -6.71875 9.18035
head 8.30526 -2.32244 2.89487
rclavicle 1.3418e-015 2.0276e-014
rhumerus 10.4646 22.4752 -38.606
rradius 56.4893
rwrist -70.2915
rhand -29.3378 -38.2601
rfingers 7.12502
rthumb -2.67799 -68.223
lclavicle 1.3418e-015 2.0276e-014
lhumerus 25.5122 11.3985 38.7228
lradius 31.7879
lwrist 56.0458
lhand -10.6996 65.1493
lfingers 7.12502
lthumb 15.3099 625.437
rfemur -37.1987 -16.6071 32.2174
rtibia 64.456
rfoot -4.20903 8.62877
rtoes 2.78656
lfemur -33.8291 19.5548 -14.8502
ltibia 69.7721
lfoot -1.61728 2.20306
ltoes 1.29667
1677
root -6.59557 14.9326 9.30265 -173.873 11.2923 -178.466
lowerback 5.22041 2.84466 -0.283411
upperback -6.66468 4.00372 -1.15669
thorax -9.93913 2.03619 -1.64286
lowerneck -15.9419 -4.8634 -4.00079
upperneck 16.6645 -7.22517 9.52072
head 8.32083 -2.55042 3.00458
rclavicle -3.33958e-014 3.97569e-016
rhumerus 11.0052 25.6632 -36.7555
rradius 58.3563
rwrist -68.0773
rhand -29.1458 -37.412
rfingers 7.12502
rthumb -2.49252 -67.3772
lclavicle -3.33958e-014 3.97569e-016
lhumerus 25.8104 8.20164 37.5122
lradius 32.8459
lwrist 56.2185
lhand -11.508 65.6506
lfingers 7.12502
lthumb 14.5311 624.878
rfemur -36.4266 -16.0023 32.2931
rtibia 64.3055
rfoot -5.03444 7.98519
rtoes 1.8076
lfemur -34.6928 19.1725 -14.527
ltibia 71.2648
lfoot -1.49481 1.97562
ltoes 2.29057
1678
root -6.53697 14.9078 9.24109 -174.123 11.0762 -178.531
lowerback 5.53606 2.83846 -0.239786
upperback -6.63112 3.9762 -1.32803
thorax -10.0759 2.00657 -1.86441
lowerneck -15.8116 -5.25092 -4.35485
upperneck 16.5118 -7.73348 9.88149
head 8.3151 -2.78034 3.12078
rclavicle -5.2827e-014 -1.59028e-015
rhumerus 11.5581 28.5786 -34.9311
rradius 60.3492
rwrist -65.396
rhand -29.1789 -36.2541
rfingers 7.12502
rthumb -2.52453 -66.2189
lclavicle -5.2827e-014 -1.59028e-015
lhumerus 26.0808 4.93358 36.1178
lradius 34.0933
lwrist 56.1567
lhand -12.5916 65.9963
lfingers 7.12502
lthumb 13.4868 624.46
rfemur -35.7032 -15.4221 32.3077
rtibia 64.2162
rfoot -5.86768 7.31992
rtoes 0.503012
lfemur -35.4592 18.6929 -14.2829
ltibia 72.4742
lfoot -1.92722 1.56228
ltoes 2.57497
1679
root -6.47933 14.8799 9.17817 -174.369 10.9039 -178.633
lowerback 5.87304 2.83643 -0.218629
upperback -6.61378 3.95257 -1.5137
thorax -10.2445 1.98002 -2.09224
lowerneck -15.6388 -5.6246 -4.68139
upperneck 16.3165 -8.22591 10.2367
head 8.28888 -3.00451 3.2325
rclavicle 4.87022e-015 -2.22639e-014
rhumerus 12.1014 31.2243 -33.1763
rradius 62.4661
rwrist -62.2577
rhand -29.4165 -34.8036
rfingers 7.12502
rthumb -2.75397 -64.7656
lclavicle 4.87022e-015 -2.22639e-014
lhumerus 26.2997 1.60576 34.5106
lradius 35.5569
lwrist 55.861
lhand -13.7538 66.2765
lfingers 7.12502
lthumb 12.3665 624.109
rfemur -35.033 -14.8872 32.291
rtibia 64.205
rfoot -6.69693 6.61403
rtoes -1.04896
lfemur -36.1251 18.1129 -14.1031
ltibia 73.348
lfoot -2.88166 0.894852
ltoes 2.1091
